<svg style="display: none;">

  <!-- FixiBar -->
<symbol id="fixiBar" viewBox="0 0 1280 1280">
  <path fill="currentColor"
    d="M445.7,518c-3-2-7-0.8-8.4,2.5C420,561.3,307.5,769.3,290.4,796.5c-71.1,112.9-147,218.7-216.9,332.4
      c-14.7,23.9-15.9,64.8,23.4,53.9c26.8-7.5,51.1-21.6,75.8-34.6c55.6-29.2,114.4-50.6,173.1-72.3c50.3-18.6,111.1-35.4,164.2-44.6
      c0.9-0.1,1.2-1.6,0.4-1.7c-20.6-3.3-115-80.9-42.2-186.9c0,0-25.5-266.1,109.3-61.1c0,0,55.7-5.5,77.7,2.7
      c0,0,132.7-220.1,115.3,51.9c0,0,80.1,109.9-31.6,185.9c-0.4,0.2-0.3,0.8,0.1,0.9c139,35.1,287.1,64.7,411,137.7
      c11.1,6.6,22.7,12.3,34.8,16.9c5.3,2,11.4,3.8,16.2-1.8c3.9-4.5,4.4-11,1.9-16.3c-34.2-72.7-77.3-139.9-134.2-196.6
      c-26.6-26.5-55.3-51-85.3-73.6c-32.9-24.8-142.3-81.2-116.9-76.3c57.2,16.8,109.2,39.7,159.1,72.1c2.4,1.6,6.1,2.9,7.7,0.6
      c1.1-1.6,0.3-3.8-0.5-5.6c-4.7-9.5-10.7-18.2-16.7-26.8c-47.3-68.2-90-139.1-132.2-210.5c-91.2-154.2-153.1-324.3-216.2-490.9
      c-6.6-17.4-12.4-38.6-23.4-61.5c-1.6-3.2-5.7-6.7-9.2-7.3c-9.9-1.7-15.2,8.7-18.2,15.1c-42.9,93.3-83.7,187.6-125.6,281.4
      c-15.1,33.8-32.5,65.9-16.1,98.6c18,36,63.3,54.6,96,77.5c2.2,1.6,0.7,5.1-1.9,4.5C547.8,555.9,491.5,549.3,445.7,518z"/>
</symbol>

  <!-- Hyprland -->
<symbol id="hyprland" viewBox="0 0 24 24" stroke="currentColor" fill="none" stroke-width="2" stroke-linecap="round" stroke-linejoin="round">
  <path stroke="none" d="M0 0h24v24H0z" fill="none"/>
  <path d="M7.502 19.423c2.602 2.105 6.395 2.105 8.996 0c2.602 -2.105 3.262 -5.708 1.566 -8.546l-4.89 -7.26c-.42 -.625 -1.287 -.803 -1.936 -.397a1.376 1.376 0 0 0 -.41 .397l-4.893 7.26c-1.695 2.838 -1.035 6.441 1.567 8.546z" />
</symbol>

  <!-- Python -->
<symbol id="python" viewBox="0 0 32 32">
  <path fill-rule="evenodd" clip-rule="evenodd"
    d="M13.0164 2C10.8193 2 9.03825 3.72453 9.03825 5.85185V8.51852H15.9235V9.25926H5.97814C3.78107 9.25926 2 10.9838 2 13.1111L2 18.8889C2 21.0162 3.78107 22.7407 5.97814 22.7407H8.27322V19.4815C8.27322 17.3542 10.0543 15.6296 12.2514 15.6296H19.5956C21.4547 15.6296 22.9617 14.1704 22.9617 12.3704V5.85185C22.9617 3.72453 21.1807 2 18.9836 2H13.0164ZM12.0984 6.74074C12.8589 6.74074 13.4754 6.14378 13.4754 5.40741C13.4754 4.67103 12.8589 4.07407 12.0984 4.07407C11.3378 4.07407 10.7213 4.67103 10.7213 5.40741C10.7213 6.14378 11.3378 6.74074 12.0984 6.74074Z"
    fill="#327EBD" />
  <path fill-rule="evenodd" clip-rule="evenodd"
    d="M18.9834 30C21.1805 30 22.9616 28.2755 22.9616 26.1482V23.4815L16.0763 23.4815L16.0763 22.7408L26.0217 22.7408C28.2188 22.7408 29.9998 21.0162 29.9998 18.8889V13.1111C29.9998 10.9838 28.2188 9.25928 26.0217 9.25928L23.7266 9.25928V12.5185C23.7266 14.6459 21.9455 16.3704 19.7485 16.3704L12.4042 16.3704C10.5451 16.3704 9.03809 17.8296 9.03809 19.6296L9.03809 26.1482C9.03809 28.2755 10.8192 30 13.0162 30H18.9834ZM19.9015 25.2593C19.1409 25.2593 18.5244 25.8562 18.5244 26.5926C18.5244 27.329 19.1409 27.9259 19.9015 27.9259C20.662 27.9259 21.2785 27.329 21.2785 26.5926C21.2785 25.8562 20.662 25.2593 19.9015 25.2593Z"
    fill="#FFDA4B" />
</symbol>

  <!-- Shell -->
  <symbol id="shell" viewBox="0 0 24 24">
    <path d="M4 4h16v16H4z" stroke="currentColor" stroke-width="2" fill="none" stroke-linecap="round" stroke-linejoin="round"/>
    <path d="M7 9l3 3-3 3" stroke="currentColor" stroke-width="2" fill="none" stroke-linecap="round" stroke-linejoin="round"/>
    <path d="M13 15h4" stroke="currentColor" stroke-width="2" fill="none" stroke-linecap="round" stroke-linejoin="round"/>
  </symbol>

  <!-- GTK -->
  <symbol id="gtk" viewBox="0 0 24 24">
    <path fill="currentColor" d="M11.62 1.22 2.25 5.03v14.22l9.37 3.53 9.38-3.53V5.03L11.62 1.22zm.38 2.55 6.53 2.47-6.53 2.65-6.53-2.65 6.53-2.47zm-7.5 4.5 6.75 2.74v8.03l-6.75-2.53V8.27zm15 8.23-6.75 2.53v-8.03l6.75-2.74v8.24z"/>
  </symbol>

  <!-- Neovim -->
<symbol id="nvim" viewBox="0 0 64 64">
  <g transform="matrix(.301563 0 0 .301563 5.613197 .052163)" fill-rule="evenodd">
    <path d="M.027 45.46L45.224-.173v212.17L.027 166.894z" fill="#16b0ed"/>
    <path transform="matrix(-1 0 0 1 304 0)"
      d="M129.337 45.89L175.152-.148l-.93 212.147-45.197-45.104z"
      fill="#367533"/>
    <path d="M45.194-.137l117.506 179.3-32.882 32.88L12.25 33.14z"
      fill="#88c649"/>
    <path d="M45.234 83.032l-.062 7.063L8.89 36.532l3.36-3.422z"
      fill="rgba(0,0,0,0.13)"/>
  </g>
</symbol>

  <!-- Lua -->
<symbol id="lua" viewBox="0 0 947 947">
    <path fill="#000080" d="M835.5,473.6c0-199.8-162.2-362-362-362s-362,162.2-362,362c0,199.8,162.2,362,362,362
      S835.5,673.4,835.5,473.6"/>
    <path fill="#FFFFFF" d="M729.5,323.6c0-58.5-47.5-106-106-106s-106,47.5-106,106c0,58.5,47.5,106,106,106S729.5,382.1,729.5,323.6"/>
    <path fill="#000080" d="M941.5,111.5c0-58.5-47.5-106-106-106s-106,47.5-106,106c0,58.5,47.5,106,106,106S941.5,170.1,941.5,111.5"/>
</symbol>

 <!-- Github    -->
<symbol id="github" viewBox="0 0 24 24">
  <path
    fill="currentColor"
    fill-rule="evenodd"
    clip-rule="evenodd"
    d="M12 2C6.477 2 2 6.484 2 12.017c0 4.425 2.865 8.18 6.839 9.504.5.092.682-.217.682-.483 0-.237-.008-.868-.013-1.703-2.782.605-3.369-1.343-3.369-1.343-.454-1.158-1.11-1.466-1.11-1.466-.908-.62.069-.608.069-.608 1.003.07 1.531 1.032 1.531 1.032.892 1.53 2.341 1.088 2.91.832.092-.647.35-1.088.636-1.338-2.22-.253-4.555-1.113-4.555-4.951 0-1.093.39-1.988 1.029-2.688-.103-.253-.446-1.272.098-2.65 0 0 .84-.27 2.75 1.026A9.564 9.564 0 0112 6.844c.85.004 1.705.115 2.504.337 1.909-1.296 2.747-1.027 2.747-1.027.546 1.379.202 2.398.1 2.651.64.7 1.028 1.595 1.028 2.688 0 3.848-2.339 4.695-4.566 4.943.359.309.678.92.678 1.855 0 1.338-.012 2.419-.012 2.747 0 .268.18.58.688.482A10.019 10.019 0 0022 12.017C22 6.484 17.522 2 12 2z"
  />
</symbol>

    <!-- TypeScript -->
<symbol id="typescript" viewBox="0 0 256 256">
  <polygon
    fill="#007ACC"
    transform="translate(128,128) scale(1,-1) translate(-128,-128)"
    points="0 128 0 0 128 0 256 0 256 128 256 256 128 256 0 256"
  />
  <path
    fill="#FFFFFF"
    d="M146.658132,223.436863 L146.739401,212.953054 L130.079084,212.953054 L113.418767,212.953054 L113.418767,165.613371 L113.418767,118.273689 L101.63464,118.273689 L89.8505126,118.273689 L89.8505126,165.613371 L89.8505126,212.953054 L73.1901951,212.953054 L56.5298776,212.953054 L56.5298776,223.233689 C56.5298776,228.922577 56.6517824,233.676863 56.8143221,233.798768 C56.9362269,233.961308 77.2130522,234.042577 101.797179,234.001943 L146.536227,233.880038 L146.658132,223.436863 Z"
    transform="translate(101.634640,176.142993) rotate(180) translate(-101.634640,-176.142993)"
  />
  <path
    fill="#FFFFFF"
    d="M206.566631,234.272145 C213.068219,232.646748 218.025679,229.761668 222.57679,225.048018 C224.933616,222.528653 228.428219,217.936907 228.712663,216.839764 C228.793933,216.514684 217.659965,209.037859 210.914568,204.852462 C210.670758,204.689922 209.69552,205.74643 208.598377,207.371827 C205.306949,212.166748 201.852981,214.239129 196.570441,214.604843 C188.809171,215.133097 183.811076,211.069605 183.851711,204.283573 C183.851711,202.292462 184.136155,201.114049 184.948854,199.488653 C186.65552,195.953414 189.825044,193.840399 199.7806,189.533097 C218.106949,181.649922 225.949489,176.448653 230.825679,169.053097 C236.270758,160.804208 237.489806,147.638494 233.792028,137.845478 C229.728536,127.199129 219.651076,119.966113 205.469489,117.568653 C201.080917,116.796589 190.678377,116.918494 185.964727,117.771827 C175.684092,119.600399 165.931711,124.679764 159.917743,131.343891 C157.560917,133.944526 152.969171,140.730557 153.253616,141.218176 C153.37552,141.380716 154.432028,142.030875 155.610441,142.721668 C156.748219,143.371827 161.05552,145.850557 165.119012,148.207383 L172.473933,152.474049 L174.01806,150.198494 C176.171711,146.907065 180.885362,142.396589 183.729806,140.893097 C191.897425,136.585795 203.112663,137.195319 208.639012,142.15278 C210.995838,144.30643 211.971076,146.541351 211.971076,149.83278 C211.971076,152.799129 211.605362,154.099446 210.061235,156.334367 C208.070123,159.178811 204.006631,161.576272 192.466314,166.574367 C179.259965,172.263256 173.571076,175.798494 168.369806,181.406113 C165.362822,184.656907 162.518377,189.858176 161.339965,194.206113 C160.364727,197.822621 160.120917,206.884208 160.892981,210.541351 C163.61552,223.300716 173.245996,232.199764 187.143139,234.841034 C191.653616,235.694367 202.137425,235.369287 206.566631,234.272145 Z"
    transform="translate(194.578507,176.190240) scale(1,-1) translate(-194.578507,-176.190240)"
  />
</symbol>

  <!-- Tailwind CSS -->
<symbol id="tailwind" viewBox="0 0 32 32">
  <path d="M9,13.7q1.4-5.6,7-5.6c5.6,0,6.3,4.2,9.1,4.9q2.8.7,4.9-2.1-1.4,5.6-7,5.6c-5.6,0-6.3-4.2-9.1-4.9Q11.1,10.9,9,13.7ZM2,22.1q1.4-5.6,7-5.6c5.6,0,6.3,4.2,9.1,4.9q2.8.7,4.9-2.1-1.4,5.6-7,5.6c-5.6,0-6.3-4.2-9.1-4.9Q4.1,19.3,2,22.1Z" fill="#44a8b3"/>
</symbol>

  <!-- CSS -->
<symbol id="css" viewBox="0 0 32 32">
  <polygon points="5.902 27.201 3.656 2 28.344 2 26.095 27.197 15.985 30 5.902 27.201" fill="#1572b6"/>
  <polygon points="16 27.858 24.17 25.593 26.092 4.061 16 4.061 16 27.858" fill="#33a9dc"/>
  <polygon points="16 13.191 20.09 13.191 20.372 10.026 16 10.026 16 6.935 16.011 6.935 23.75 6.935 23.676 7.764 22.917 16.282 16 16.282 16 13.191" fill="#fff"/>
  <polygon points="16.019 21.218 16.005 21.222 12.563 20.292 12.343 17.827 10.67 17.827 9.24 17.827 9.673 22.68 16.004 24.438 16.019 24.434 16.019 21.218" fill="#ebebeb"/>
  <polygon points="19.827 16.151 19.455 20.29 16.008 21.22 16.008 24.436 22.344 22.68 22.391 22.158 22.928 16.151 19.827 16.151" fill="#fff"/>
  <polygon points="16.011 6.935 16.011 8.855 16.011 10.018 16.011 10.026 8.555 10.026 8.545 10.026 8.483 9.331 8.342 7.764 8.268 6.935 16.011 6.935" fill="#ebebeb"/>
  <polygon points="16 13.191 16 15.111 16 16.274 16 16.282 12.611 16.282 12.601 16.282 12.539 15.587 12.399 14.02 12.325 13.191 16 13.191" fill="#ebebeb"/>
</symbol>

  <!-- Astro -->
<symbol id="astro" viewBox="0 0 32 32">
  <path d="M5.9,18.847a7.507,7.507,0,0,0-.572,2.624,3.265,3.265,0,0,0,.551,1.553,7.427,7.427,0,0,0,2.093,1.681L13.1,28.119A7.332,7.332,0,0,0,15.2,29.287a3.239,3.239,0,0,0,1.5,0,7.381,7.381,0,0,0,2.117-1.16L24,24.711a7.512,7.512,0,0,0,2.117-1.688,3.241,3.241,0,0,0,.55-1.563,7.515,7.515,0,0,0-.587-2.643L21.547,4.551a3.973,3.973,0,0,0-.54-1.3,1.733,1.733,0,0,0-.7-.51,3.972,3.972,0,0,0-1.4-.122H13.005a3.932,3.932,0,0,0-1.4.125,1.713,1.713,0,0,0-.7.512,3.94,3.94,0,0,0-.535,1.3L5.9,18.848Zm13.24-13.2a3.329,3.329,0,0,1,.441,1.093l3.892,12.784a16.168,16.168,0,0,0-4.653-1.573L16.291,9.391a.331.331,0,0,0-.513-.169.323.323,0,0,0-.119.169l-2.5,8.557a16.14,16.14,0,0,0-4.674,1.579L12.393,6.743a3.281,3.281,0,0,1,.442-1.094,1.458,1.458,0,0,1,.582-.43,3.31,3.31,0,0,1,1.175-.1h2.793a3.314,3.314,0,0,1,1.176.1,1.454,1.454,0,0,1,.583.432ZM16.127,21.06a5.551,5.551,0,0,0,3.4-.923,2.8,2.8,0,0,1-.207,2.182A3.938,3.938,0,0,1,17.773,23.8c-.674.428-1.254.8-1.254,1.787a2.079,2.079,0,0,0,.209.914,2.49,2.49,0,0,1-1.535-2.3v-.061c0-.683,0-1.524-.962-1.524a1.028,1.028,0,0,0-.391.077,1.021,1.021,0,0,0-.552.551,1.03,1.03,0,0,0-.079.391,3.769,3.769,0,0,1-.988-2.644,4.206,4.206,0,0,1,.175-1.248c.4.757,1.92,1.32,3.731,1.32Z" fill="#ff5d01" fill-rule="evenodd"/>
</symbol>

    <!-- Java -->
<symbol id="java" viewBox="-45 0 346 346">
  <path d="M82.5539491,267.472524 C82.5539491,267.472524 69.35552,275.147869 91.9468218,277.745105 C119.315549,280.867375 133.303389,280.419607 163.463913,274.711273 C163.463913,274.711273 171.393396,279.683258 182.467491,283.989644 C114.855564,312.966982 29.4483782,282.311215 82.5539491,267.472524" fill="#5382A1"/>
  <path d="M74.2921309,229.658996 C74.2921309,229.658996 59.4888145,240.616727 82.0968727,242.955171 C111.333004,245.971316 134.421411,246.218007 174.373236,238.524975 C174.373236,238.524975 179.899113,244.127185 188.588218,247.190807 C106.841367,271.094691 15.79008,249.075898 74.2921309,229.658996" fill="#5382A1"/>
  <path d="M143.941818,165.514705 C160.601367,184.695156 139.564684,201.955142 139.564684,201.955142 C139.564684,201.955142 181.866124,180.117876 162.438982,152.772422 C144.294633,127.271098 130.380335,114.600495 205.706705,70.9138618 C205.706705,70.9138618 87.4691491,100.44416 143.941818,165.514705" fill="#E76F00"/>
  <path d="M233.364015,295.441687 C233.364015,295.441687 243.131113,303.489396 222.60736,309.715316 C183.580858,321.537862 60.1748945,325.107898 25.8932364,310.186356 C13.5698618,304.825251 36.67968,297.385425 43.9491491,295.824291 C51.5304727,294.180305 55.8629236,294.486575 55.8629236,294.486575 C42.15808,284.832116 -32.7195927,313.443607 17.8287709,321.637469 C155.681513,343.993251 269.121164,311.570618 233.364015,295.441687" fill="#5382A1"/>
  <path d="M88.9008873,190.479825 C88.9008873,190.479825 26.1287564,205.389265 66.6717091,210.803433 C83.7901964,213.095331 117.915462,212.576815 149.702284,209.913484 C175.680233,207.722124 201.765236,203.062924 201.765236,203.062924 C201.765236,203.062924 192.605091,206.985775 185.977949,211.510924 C122.233949,228.275665 -0.907636364,220.476509 34.5432436,203.328233 C64.5241018,188.83584 88.9008873,190.479825 88.9008873,190.479825" fill="#5382A1"/>
  <path d="M201.506444,253.422313 C266.305164,219.7504 236.344785,187.392 215.432844,191.751447 C210.307258,192.818269 208.021876,193.742662 208.021876,193.742662 C208.021876,193.742662 209.924655,190.761891 213.558924,189.471651 C254.929455,174.927127 286.746065,232.368873 200.204102,255.11936 C200.204102,255.120291 201.206691,254.223825 201.506444,253.422313" fill="#5382A1"/>
  <path d="M162.438982,0.371432727 C162.438982,0.371432727 198.325527,36.27008 128.402153,91.4720582 C72.3307055,135.753542 115.616116,161.001658 128.37888,189.848669 C95.6490473,160.318371 71.6297309,134.322735 87.7437673,110.128407 C111.395375,74.6132945 176.918342,57.3942691 162.438982,0.371432727" fill="#E76F00"/>
  <path d="M95.2683055,344.665367 C157.466996,348.646865 252.980131,342.45632 255.24224,313.025629 C255.24224,313.025629 250.893964,324.182575 203.838371,333.042967 C150.750487,343.033484 85.2740655,341.867055 46.4393309,335.464262 C46.4402618,335.463331 54.3892945,342.043927 95.2683055,344.665367" fill="#5382A1"/>
</symbol>

  <!-- React -->
<symbol id="react" viewBox="0 0 32 32">
  <path
    d="M18.6789 15.9759C18.6789 14.5415 17.4796 13.3785 16 13.3785C14.5206 13.3785 13.3211 14.5415 13.3211 15.9759C13.3211 17.4105 14.5206 18.5734 16 18.5734C17.4796 18.5734 18.6789 17.4105 18.6789 15.9759Z"
    fill="#53C1DE"
  />
  <path
    fill-rule="evenodd"
    clip-rule="evenodd"
    d="M24.7004 11.1537C25.2661 8.92478 25.9772 4.79148 23.4704 3.39016C20.9753 1.99495 17.7284 4.66843 16.0139 6.27318C14.3044 4.68442 10.9663 2.02237 8.46163 3.42814C5.96751 4.82803 6.73664 8.8928 7.3149 11.1357C4.98831 11.7764 1 13.1564 1 15.9759C1 18.7874 4.98416 20.2888 7.29698 20.9289C6.71658 23.1842 5.98596 27.1909 8.48327 28.5877C10.9973 29.9932 14.325 27.3945 16.0554 25.7722C17.7809 27.3864 20.9966 30.0021 23.4922 28.6014C25.9956 27.1963 25.3436 23.1184 24.7653 20.8625C27.0073 20.221 31 18.7523 31 15.9759C31 13.1835 26.9903 11.7923 24.7004 11.1537ZM24.4162 19.667C24.0365 18.5016 23.524 17.2623 22.8971 15.9821C23.4955 14.7321 23.9881 13.5088 24.3572 12.3509C26.0359 12.8228 29.7185 13.9013 29.7185 15.9759C29.7185 18.07 26.1846 19.1587 24.4162 19.667ZM22.85 27.526C20.988 28.571 18.2221 26.0696 16.9478 24.8809C17.7932 23.9844 18.638 22.9422 19.4625 21.7849C20.9129 21.6602 22.283 21.4562 23.5256 21.1777C23.9326 22.7734 24.7202 26.4763 22.85 27.526ZM9.12362 27.5111C7.26143 26.47 8.11258 22.8946 8.53957 21.2333C9.76834 21.4969 11.1286 21.6865 12.5824 21.8008C13.4123 22.9332 14.2816 23.9741 15.1576 24.8857C14.0753 25.9008 10.9945 28.557 9.12362 27.5111ZM2.28149 15.9759C2.28149 13.874 5.94207 12.8033 7.65904 12.3326C8.03451 13.5165 8.52695 14.7544 9.12123 16.0062C8.51925 17.2766 8.01977 18.5341 7.64085 19.732C6.00369 19.2776 2.28149 18.0791 2.28149 15.9759ZM9.1037 4.50354C10.9735 3.45416 13.8747 6.00983 15.1159 7.16013C14.2444 8.06754 13.3831 9.1006 12.5603 10.2265C11.1494 10.3533 9.79875 10.5569 8.55709 10.8297C8.09125 9.02071 7.23592 5.55179 9.1037 4.50354ZM20.3793 11.5771C21.3365 11.6942 22.2536 11.85 23.1147 12.0406C22.8562 12.844 22.534 13.6841 22.1545 14.5453C21.6044 13.5333 21.0139 12.5416 20.3793 11.5771ZM16.0143 8.0481C16.6054 8.66897 17.1974 9.3623 17.7798 10.1145C16.5985 10.0603 15.4153 10.0601 14.234 10.1137C14.8169 9.36848 15.414 8.67618 16.0143 8.0481ZM9.8565 14.5444C9.48329 13.6862 9.16398 12.8424 8.90322 12.0275C9.75918 11.8418 10.672 11.69 11.623 11.5748C10.9866 12.5372 10.3971 13.5285 9.8565 14.5444ZM11.6503 20.4657C10.6679 20.3594 9.74126 20.2153 8.88556 20.0347C9.15044 19.2055 9.47678 18.3435 9.85796 17.4668C10.406 18.4933 11.0045 19.4942 11.6503 20.4657ZM16.0498 23.9915C15.4424 23.356 14.8365 22.6531 14.2448 21.8971C15.4328 21.9423 16.6231 21.9424 17.811 21.891C17.2268 22.6608 16.6369 23.3647 16.0498 23.9915ZM22.1667 17.4222C22.5677 18.3084 22.9057 19.1657 23.1742 19.9809C22.3043 20.1734 21.3652 20.3284 20.3757 20.4435C21.015 19.4607 21.6149 18.4536 22.1667 17.4222ZM18.7473 20.5941C16.9301 20.72 15.1016 20.7186 13.2838 20.6044C12.2509 19.1415 11.3314 17.603 10.5377 16.0058C11.3276 14.4119 12.2404 12.8764 13.2684 11.4158C15.0875 11.2825 16.9178 11.2821 18.7369 11.4166C19.7561 12.8771 20.6675 14.4086 21.4757 15.9881C20.6771 17.5812 19.7595 19.1198 18.7473 20.5941ZM22.8303 4.4666C24.7006 5.51254 23.8681 9.22726 23.4595 10.8426C22.2149 10.5641 20.8633 10.3569 19.4483 10.2281C18.6239 9.09004 17.7698 8.05518 16.9124 7.15949C18.1695 5.98441 20.9781 3.43089 22.8303 4.4666Z"
    fill="#53C1DE"
  />
</symbol>

  <!-- JavaScript -->
<symbol id="javascript" viewBox="0 0 512 512" aria-label="JavaScript" role="img">
  <rect width="512" height="512" rx="15%" fill="#f7df1e" />
  <path d="M324 370c10 17 24 29 47 29c20 0 33-10 33 -24c0-16 -13 -22 -35 -32l-12-5c-35-15 -58 -33 -58 -72c0-36 27-64 70-64c31 0 53 11 68 39l-37 24c-8-15 -17-21 -31-21c-14 0-23 9 -23 21c0 14 9 20 30 29l12 5c41 18 64 35 64 76c0 43-34 67 -80 67c-45 0-74 -21 -88-49zm-170 4c8 13 14 25 31 25c16 0 26-6 26 -30V203h48v164c0 50-29 72 -72 72c-39 0-61 -20 -72 -44z"/>
</symbol>
  
  Django
<symbol id="django" viewBox="0 0 512 512" fill="currentColor">
  <path d="M321.38,0.5h-83.553v127.405c-12.483-3.253-22.786-4.338-36.354-4.338
    c-87.349,0-143.781,55.34-143.781,140.52c0,88.441,53.176,134.556,155.181,134.556c34.165,0,65.639-3.254,108.508-11.392V0.5z
    M237.827,329.203c-11.938,1.623-19.533,2.162-28.755,2.162c-42.865,0-66.197-24.409-66.197-68.904
    c0-45.573,24.413-71.616,66.743-71.616c10.303,0,18.437,1.084,28.209,4.338V329.203z M454.309,0.949v85.726h-83.557V0.949H454.309z
    M370.752,129.532h83.557v193.699c0,66.735-4.889,98.743-19.537,126.417c-13.56,26.59-31.466,43.403-68.365,61.852l-77.589-36.896
    c36.889-17.359,54.81-32.542,66.197-55.883c11.934-23.874,15.737-51.544,15.737-124.252V129.532z"/>
</symbol>

<!-- Right Arrow -->
<symbol id="rightArrow" viewBox="0 0 24 24">
  <path
    d="M5 12h14M13 6l6 6-6 6"
    fill="none"
    stroke="currentColor"
    stroke-width="2"
    stroke-linecap="round"
    stroke-linejoin="round"
  />
</symbol>

  <!-- Down Arrow -->
<symbol id="downArrow" viewBox="0 0 24 24">
  <path d="M0 0h24v24H0z" fill="none" stroke="none"/>
  <path
    d="M12 5v14"
    fill="none"
    stroke="currentColor"
    stroke-width="2"
    stroke-linecap="round"
    stroke-linejoin="round"
  />
  <path
    d="M16 15l-4 4"
    fill="none"
    stroke="currentColor"
    stroke-width="2"
    stroke-linecap="round"
    stroke-linejoin="round"
  />
  <path
    d="M8 15l4 4"
    fill="none"
    stroke="currentColor"
    stroke-width="2"
    stroke-linecap="round"
    stroke-linejoin="round"
  />
</symbol>

  <!-- Lab Remoto -->
<symbol id="labRemo" viewBox="0 0 235 271">
    <path d="M191.294 193.747H89.6173C46.2803 193.747 11.0361 157.8 11.0361 113.611V40.4661H41.0791V113.611C41.0791 141.313 62.8603 163.838 89.6173 163.838H191.294V193.747Z" fill="#6E30FF" />
    <path d="M196.199 256.285H141.723C106.858 256.285 78.4796 227.384 78.4796 191.84V40.4661H104.652V191.84C104.652 212.877 121.29 230.011 141.723 230.011H196.199V256.285Z" fill="#192F59" />
    <path d="M26.3643 52.7285C11.8263 52.7285 0 40.9023 0 26.3643C0 11.8263 11.8263 0 26.3643 0C40.9023 0 52.7285 11.8263 52.7285 26.3643C52.7285 40.9023 40.9023 52.7285 26.3643 52.7285Z" fill="#192F59" />
    <path d="M91.9683 52.7285C77.0922 52.7285 64.9909 40.9023 64.9909 26.3643C64.9909 11.8263 77.0922 0 91.9683 0C106.844 0 118.946 11.8263 118.946 26.3643C118.946 40.9023 106.844 52.7285 91.9683 52.7285Z" fill="#6E30FF" />
    <path d="M207.848 271C193.31 271 181.484 258.899 181.484 244.023C181.484 229.146 193.31 217.045 207.848 217.045C222.386 217.045 234.213 229.146 234.213 244.023C234.213 258.899 222.386 271 207.848 271Z" fill="#6E30FF" />
    <path d="M207.848 206.009C193.31 206.009 181.484 194.183 181.484 179.645C181.484 165.107 193.31 153.281 207.848 153.281C222.386 153.281 234.213 165.107 234.213 179.645C234.213 194.183 222.386 206.009 207.848 206.009Z" fill="#192F59" />
</symbol>

  <!-- Auxiliar Logo -->
<symbol id="logo" viewBox="0 0 24 24" 
  fill="none" 
  stroke="currentColor" 
  stroke-width="2" 
  stroke-linecap="round" 
  stroke-linejoin="round"
>
  <path stroke="none" d="M0 0h24v24H0z" fill="none"/>
  <path d="M3 5m0 2a2 2 0 0 1 2 -2h14a2 2 0 0 1 2 2v10a2 2 0 0 1 -2 2h-14a2 2 0 0 1 -2 -2z" />
  <path d="M6 8h.01" />
  <path d="M9 8h.01" />
</symbol>

  <!-- LinkedIn -->
<symbol
  id="linkedin"
  viewBox="0 0 382 382"
  fill="#0077B7"
>
  <path d="M347.445,0H34.555C15.471,0,0,15.471,0,34.555v312.889C0,366.529,15.471,382,34.555,382h312.889
    C366.529,382,382,366.529,382,347.444V34.555C382,15.471,366.529,0,347.445,0z M118.207,329.844c0,5.554-4.502,10.056-10.056,10.056
    H65.345c-5.554,0-10.056-4.502-10.056-10.056V150.403c0-5.554,4.502-10.056,10.056-10.056h42.806
    c5.554,0,10.056,4.502,10.056,10.056V329.844z M86.748,123.432c-22.459,0-40.666-18.207-40.666-40.666S64.289,42.1,86.748,42.1
    s40.666,18.207,40.666,40.666S109.208,123.432,86.748,123.432z M341.91,330.654c0,5.106-4.14,9.246-9.246,9.246H286.73
    c-5.106,0-9.246-4.14-9.246-9.246v-84.168c0-12.556,3.683-55.021-32.813-55.021c-28.309,0-34.051,29.066-35.204,42.11v97.079
    c0,5.106-4.139,9.246-9.246,9.246h-44.426c-5.106,0-9.246-4.14-9.246-9.246V149.593c0-5.106,4.14-9.246,9.246-9.246h44.426
    c5.106,0,9.246,4.14,9.246,9.246v15.655c10.497-15.753,26.097-27.912,59.312-27.912c73.552,0,73.131,68.716,73.131,106.472
    L341.91,330.654L341.91,330.654z"/>
</symbol>

    <!-- Mail -->
<symbol id="mail" viewBox="0 0 24 24" stroke="currentColor" stroke-width="2" stroke-linecap="round" stroke-linejoin="round" fill="none">
  <path d="M3 7a2 2 0 0 1 2 -2h14a2 2 0 0 1 2 2v10a2 2 0 0 1 -2 2h-14a2 2 0 0 1 -2 -2v-10z"/>
  <path d="M3 7l9 6l9 -6"/>
</symbol>

    <!-- External Link -->
<symbol id="external-link" viewBox="0 0 24 24" fill="none" stroke="currentColor"
        stroke-width="2" stroke-linecap="round" stroke-linejoin="round">
  <path d="M12 6h-6a2 2 0 0 0 -2 2v10a2 2 0 0 0 2 2h10a2 2 0 0 0 2 -2v-6"/>
  <path d="M11 13l9 -9"/>
  <path d="M15 4h5v5"/>
</symbol>
</svg>
