<?xml version="1.0" encoding="utf-8"?>
<!-- Generator: Adobe Illustrator 26.4.1, SVG Export Plug-In . SVG Version: 6.00 Build 0) By ig:@nayla.fresita  -->
<svg version="1.1" id="Capa_1" xmlns="http://www.w3.org/2000/svg" xmlns:xlink="http://www.w3.org/1999/xlink" x="0px" y="0px"
	 viewBox="0 0 1280 1280" style="enable-background:new 0 0 1280 1280;" xml:space="preserve">
<style type="text/css">
	.st0{fill:#75B4E3;}
</style>
<path class="st0" d="M445.7,518c-3-2-7-0.8-8.4,2.5C420,561.3,307.5,769.3,290.4,796.5c-71.1,112.9-147,218.7-216.9,332.4
	c-14.7,23.9-15.9,64.8,23.4,53.9c26.8-7.5,51.1-21.6,75.8-34.6c55.6-29.2,114.4-50.6,173.1-72.3c50.3-18.6,111.1-35.4,164.2-44.6
	c0.9-0.1,1.2-1.6,0.4-1.7c-20.6-3.3-115-80.9-42.2-186.9c0,0-25.5-266.1,109.3-61.1c0,0,55.7-5.5,77.7,2.7
	c0,0,132.7-220.1,115.3,51.9c0,0,80.1,109.9-31.6,185.9c-0.4,0.2-0.3,0.8,0.1,0.9c139,35.1,287.1,64.7,411,137.7
	c11.1,6.6,22.7,12.3,34.8,16.9c5.3,2,11.4,3.8,16.2-1.8c3.9-4.5,4.4-11,1.9-16.3c-34.2-72.7-77.3-139.9-134.2-196.6
	c-26.6-26.5-55.3-51-85.3-73.6c-32.9-24.8-142.3-81.2-116.9-76.3c57.2,16.8,109.2,39.7,159.1,72.1c2.4,1.6,6.1,2.9,7.7,0.6
	c1.1-1.6,0.3-3.8-0.5-5.6c-4.7-9.5-10.7-18.2-16.7-26.8c-47.3-68.2-90-139.1-132.2-210.5c-91.2-154.2-153.1-324.3-216.2-490.9
	c-6.6-17.4-12.4-38.6-23.4-61.5c-1.6-3.2-5.7-6.7-9.2-7.3c-9.9-1.7-15.2,8.7-18.2,15.1c-42.9,93.3-83.7,187.6-125.6,281.4
	c-15.1,33.8-32.5,65.9-16.1,98.6c18,36,63.3,54.6,96,77.5c2.2,1.6,0.7,5.1-1.9,4.5C547.8,555.9,491.5,549.3,445.7,518z"/>
</svg>
